<svg width="18" height="14" viewBox="0 0 18 14" fill="none" xmlns="http://www.w3.org/2000/svg">
<path d="M18 1.65681C17.3273 1.94277 16.6131 2.13099 15.8799 2.21424C16.6509 1.77264 17.2291 1.07766 17.5012 0.255994C16.7756 0.668638 15.9857 0.958213 15.1581 1.11386C13.7636 -0.308676 11.4243 -0.37745 9.93911 0.958213C9.1984 1.62423 8.77514 2.55811 8.77514 3.53181C8.77514 3.80328 8.80915 4.07476 8.86962 4.339C5.903 4.20145 3.14046 2.86579 1.25845 0.665018C0.287214 2.27578 0.78228 4.33176 2.39219 5.37061C1.80642 5.35251 1.232 5.20048 0.718035 4.929V4.97606C0.718035 6.65921 1.95759 8.10709 3.68087 8.4401C3.13668 8.58126 2.56603 8.59936 2.01428 8.50163C2.49801 9.94227 3.88117 10.9304 5.46084 10.9558C4.15326 11.9367 2.53958 12.4652 0.880537 12.4616C0.585765 12.4616 0.290993 12.4435 0 12.4109C1.68927 13.4534 3.6582 14.0072 5.6687 13.9999C12.4711 13.9999 16.1709 8.61384 16.1709 3.94445C16.1709 3.7888 16.1709 3.63678 16.1709 3.48475C16.8889 2.98524 17.5087 2.36627 18 1.65681Z" fill="#333333"/>
</svg>
