<svg width="21" height="21" viewBox="0 0 21 21" fill="none" xmlns="http://www.w3.org/2000/svg">
<g clip-path="url(#clip0)">
<path d="M11.6158 6.75427L10.3443 8.0258C10.9742 8.19378 11.5505 8.52508 12.0124 8.98703C13.4683 10.4405 13.4683 12.7993 12.0124 14.2551L7.99253 18.2727C6.53669 19.7285 4.17795 19.7285 2.72445 18.2727C1.27094 16.8168 1.26861 14.4581 2.72445 13.0046L4.60957 11.1195C4.43926 10.4312 4.3716 9.71961 4.40659 9.01269L1.56958 11.8497C-0.523192 13.9425 -0.523192 17.3348 1.56958 19.4275C3.66234 21.5203 7.05463 21.5203 9.1474 19.4275L13.1673 15.4076C15.2601 13.3219 15.2647 9.93425 13.179 7.84149C12.7287 7.38887 12.1991 7.02024 11.6158 6.75427Z" fill="#333333"/>
<path d="M15.6407 8.96123e-05C14.2175 -0.00457654 12.855 0.56236 11.8518 1.57025L7.82954 5.59014C5.73911 7.68524 5.73911 11.0752 7.82954 13.168C8.27983 13.6159 8.8071 13.9799 9.38337 14.2435L10.6526 12.9743C10.0203 12.8063 9.44403 12.4774 8.98208 12.0154C7.52858 10.5596 7.52858 8.20318 8.98208 6.74734L13.002 2.72745C14.4578 1.27161 16.8165 1.27161 18.2701 2.72745C19.7259 4.18329 19.7259 6.54203 18.2701 7.99553L16.3896 9.87599C16.5296 10.4476 16.6019 11.0332 16.6019 11.6211C16.6019 11.7425 16.5996 11.8638 16.5926 11.9828L19.4249 9.15041C21.5177 7.05764 21.5177 3.66535 19.4249 1.57258C18.424 0.564694 17.0615 8.96123e-05 15.6407 8.96123e-05Z" fill="#333333"/>
</g>
<defs>
<clipPath id="clip0">
<rect width="21" height="20.9977" fill="white"/>
</clipPath>
</defs>
</svg>
