<svg width="20" height="18" viewBox="0 0 20 18" fill="none" xmlns="http://www.w3.org/2000/svg">
<path d="M20 9.14445C20.0017 7.92864 19.0254 6.94121 17.8197 6.93981C17.8176 6.93981 17.8159 6.93981 17.8138 6.93981C17.2226 6.93981 16.6845 7.17452 16.2905 7.55422C14.7855 6.47002 12.7242 5.76517 10.4304 5.67473L11.4341 0.939923L14.6958 1.64478C14.7356 2.51256 15.4656 3.18363 16.3265 3.14352C17.1591 3.10481 17.8141 2.41297 17.8145 1.57229C17.8131 0.70415 17.1155 0.000703798 16.2546 0C15.6589 0.0014076 15.1166 0.345213 14.8567 0.88573L11.2187 0.108385C11.1113 0.0900862 11.0038 0.108385 10.9319 0.162577C10.8422 0.21677 10.7885 0.307208 10.771 0.415593L9.65924 5.69267C7.32958 5.76517 5.23267 6.46967 3.70946 7.57252C3.29908 7.17734 2.75365 6.9574 2.18624 6.9581C0.98058 6.95634 0.0017448 7.94061 0 9.15677C0 9.15888 0 9.16064 0 9.16275C0 10.0661 0.5374 10.8251 1.29046 11.1689C1.25382 11.3899 1.23602 11.6137 1.23672 11.8375C1.23672 15.2348 5.16148 18 10.0002 18C14.8389 18 18.7636 15.2527 18.7636 11.8375C18.7636 11.6208 18.7455 11.3853 18.7099 11.1689C19.4954 10.8065 19.9996 10.0158 20 9.14445ZM4.98212 10.7167C4.98281 9.84861 5.68039 9.14481 6.54162 9.14445C7.40181 9.14445 8.10078 9.84931 8.10078 10.7167C8.10078 11.5842 7.40181 12.2894 6.54162 12.2894C5.68074 12.307 4.98212 11.5842 4.98212 10.7167ZM13.7096 14.8913C12.6345 15.9755 10.5913 16.048 10.0002 16.048C9.39089 16.048 7.34772 15.9572 6.29037 14.8913C6.13194 14.7354 6.12915 14.4792 6.28374 14.3198C6.28583 14.3177 6.28828 14.3153 6.29037 14.3132C6.44496 14.1534 6.699 14.1506 6.85708 14.3065C6.85918 14.3086 6.86162 14.311 6.86371 14.3132C7.54488 15.0001 8.97842 15.2348 10.0002 15.2348C11.0219 15.2348 12.4733 15.0001 13.1363 14.3132C13.2909 14.1534 13.5449 14.1506 13.703 14.3065C13.7051 14.3086 13.7075 14.311 13.7096 14.3132C13.8531 14.4785 13.8531 14.7256 13.7096 14.8913ZM13.4228 12.307C12.5626 12.307 11.8636 11.6021 11.8636 10.7347C11.8636 9.86726 12.5626 9.1624 13.4228 9.1624C14.2837 9.16275 14.9816 9.8662 14.9823 10.7347C14.9823 11.5842 14.2833 12.307 13.4228 12.307Z" fill="#333333"/>
</svg>
