<svg width="18" height="17" viewBox="0 0 18 17" fill="none" xmlns="http://www.w3.org/2000/svg">
<path d="M0.278396 5.62859H3.80117V16.9572H0.278396V5.62859ZM2.04157 0C3.16943 0 4.08314 0.913709 4.08314 2.04157C4.08314 3.16943 3.16943 4.08314 2.04157 4.08314C0.913709 4.08314 0 3.16943 0 2.04157C0 0.913709 0.913709 0 2.04157 0Z" fill="#333333"/>
<path d="M6.01172 5.62856H9.38459V7.17758H9.44884C10.1377 5.99976 11.4155 5.3002 12.7789 5.35016C16.3481 5.35016 17.0012 7.69511 17.0012 10.7432V16.9571H13.482V11.4499C13.482 10.1364 13.4606 8.44464 11.6546 8.44464C9.84858 8.44464 9.54163 9.87231 9.54163 11.3535V16.9571H6.026L6.01172 5.62856Z" fill="#333333"/>
</svg>
