<svg width="15" height="14" viewBox="0 0 15 14" fill="none" xmlns="http://www.w3.org/2000/svg">
<path d="M8.125 3V9H7.125V3H8.125Z" fill="#14A961"/>
<path d="M7.625 11.5C8.03921 11.5 8.375 11.1642 8.375 10.75C8.375 10.3358 8.03921 10 7.625 10C7.21079 10 6.875 10.3358 6.875 10.75C6.875 11.1642 7.21079 11.5 7.625 11.5Z" fill="#14A961"/>
<path fill-rule="evenodd" clip-rule="evenodd" d="M7.625 14C11.491 14 14.625 10.866 14.625 7C14.625 3.13401 11.491 0 7.625 0C3.75901 0 0.625 3.13401 0.625 7C0.625 10.866 3.75901 14 7.625 14ZM7.625 13C10.9387 13 13.625 10.3137 13.625 7C13.625 3.68629 10.9387 1 7.625 1C4.31129 1 1.625 3.68629 1.625 7C1.625 10.3137 4.31129 13 7.625 13Z" fill="#14A961"/>
</svg>
